<svg width="104" height="104" viewBox="0 0 104 104" fill="none" xmlns="http://www.w3.org/2000/svg">
<g filter="url(#filter0_d)">
<rect x="20" y="19" width="64" height="64" rx="32" fill="#F95738"/>
</g>
<path d="M63.9091 48.4545C63.9091 57.3636 52.4545 65 52.4545 65C52.4545 65 41 57.3636 41 48.4545C41 45.4166 42.2068 42.5031 44.355 40.355C46.5031 38.2068 49.4166 37 52.4545 37C55.4925 37 58.406 38.2068 60.5541 40.355C62.7023 42.5031 63.9091 45.4166 63.9091 48.4545Z" stroke="white" stroke-width="3" stroke-linecap="round" stroke-linejoin="round"/>
<path d="M52.4546 52.2726C54.5633 52.2726 56.2728 50.5631 56.2728 48.4544C56.2728 46.3457 54.5633 44.6362 52.4546 44.6362C50.3459 44.6362 48.6364 46.3457 48.6364 48.4544C48.6364 50.5631 50.3459 52.2726 52.4546 52.2726Z" stroke="white" stroke-width="3" stroke-linecap="round" stroke-linejoin="round"/>
<defs>
<filter id="filter0_d" x="0" y="0" width="104" height="104" filterUnits="userSpaceOnUse" color-interpolation-filters="sRGB">
<feFlood flood-opacity="0" result="BackgroundImageFix"/>
<feColorMatrix in="SourceAlpha" type="matrix" values="0 0 0 0 0 0 0 0 0 0 0 0 0 0 0 0 0 0 127 0"/>
<feOffset dy="1"/>
<feGaussianBlur stdDeviation="10"/>
<feColorMatrix type="matrix" values="0 0 0 0 0 0 0 0 0 0 0 0 0 0 0 0 0 0 0.2 0"/>
<feBlend mode="normal" in2="BackgroundImageFix" result="effect1_dropShadow"/>
<feBlend mode="normal" in="SourceGraphic" in2="effect1_dropShadow" result="shape"/>
</filter>
</defs>
</svg>
