<svg width="25" height="21" viewBox="0 0 25 21" fill="none" xmlns="http://www.w3.org/2000/svg">
<path d="M17.1111 19V17.1112C17.1111 16.1092 16.7131 15.1483 16.0046 14.4399C15.2962 13.7314 14.3353 13.3334 13.3333 13.3334H5.77778C4.77585 13.3334 3.81496 13.7314 3.10649 14.4399C2.39801 15.1483 2 16.1092 2 17.1112V19" stroke="#202072" stroke-width="2.5" stroke-linecap="round" stroke-linejoin="round"/>
<path d="M9.55555 9.55555C11.642 9.55555 13.3333 7.86419 13.3333 5.77778C13.3333 3.69137 11.642 2 9.55555 2C7.46914 2 5.77777 3.69137 5.77777 5.77778C5.77777 7.86419 7.46914 9.55555 9.55555 9.55555Z" stroke="#202072" stroke-width="2.5" stroke-linecap="round" stroke-linejoin="round"/>
<path d="M22.7778 18.9999V17.1111C22.7772 16.274 22.4986 15.4609 21.9857 14.7994C21.4729 14.1378 20.7549 13.6653 19.9445 13.4561" stroke="#202072" stroke-width="2.5" stroke-linecap="round" stroke-linejoin="round"/>
<path d="M16.1666 2.1228C16.9792 2.33086 17.6995 2.80346 18.2138 3.4661C18.7282 4.12873 19.0074 4.9437 19.0074 5.78252C19.0074 6.62135 18.7282 7.43632 18.2138 8.09895C17.6995 8.76158 16.9792 9.23418 16.1666 9.44225" stroke="#202072" stroke-width="2.5" stroke-linecap="round" stroke-linejoin="round"/>
</svg>
