<svg width="68" height="13" viewBox="0 0 68 13" fill="none" xmlns="http://www.w3.org/2000/svg">
<path d="M4.08959 1.04113C2.87964 1.4632 1.10691 1.91342 0.00950619 2.36364C-0.0186323 1.57576 0.0095062 0.731602 0.178337 0C1.95106 0.0844156 3.72379 0.112554 5.60907 0.112554C7.29739 0.112554 9.29522 0.0844156 11.0961 0C11.2649 0.731602 11.2931 1.57576 11.2649 2.36364C10.1394 1.91342 8.33851 1.40693 7.18483 1.04113C7.10042 5.14935 7.10042 8.58225 7.21297 12.7186C6.17184 12.8874 5.13072 12.8874 4.08959 12.7186C4.17401 8.55411 4.17401 5.09307 4.08959 1.04113Z" fill="#70DBF9"/>
<path d="M18.3277 10.0173C17.9619 11.9307 16.2455 13 13.9662 13C10.7866 13 8.92944 10.974 8.92944 7.99132C8.92944 5.06491 10.8147 3.09521 13.8255 3.09521C16.8645 3.09521 18.3559 4.92422 18.2714 7.85063L17.9056 8.07574H12.0528V8.18829C12.0528 10.9177 12.5593 12.3528 14.0225 12.3528C14.8104 12.3528 15.4294 11.8744 15.4294 10.5801C15.4294 10.2705 15.4013 10.0454 15.345 9.79219L15.6827 9.65149L18.3277 10.0173ZM12.081 7.31599H15.2043C15.3169 6.95019 15.345 6.38742 15.345 5.79651C15.345 4.50214 14.923 3.7424 13.9381 3.7424C12.8688 3.7424 12.1935 4.78353 12.081 7.31599Z" fill="#70DBF9"/>
<path d="M19.5658 3.3766H20.5788L22.1545 5.68396C22.5766 4.24889 23.5333 3.09521 25.2779 3.09521C26.5442 3.09521 27.6134 3.82682 27.6134 5.51513C27.6134 5.79651 27.5853 6.0779 27.529 6.35928L24.9965 7.11902L24.7996 7.09089C25.2216 5.3463 24.8558 4.41773 24.068 4.41773C23.055 4.41773 22.6048 5.7121 22.6048 7.62552C22.5766 9.22941 22.5766 11.0021 22.6329 12.7467C21.6199 12.6623 20.6069 12.6623 19.5939 12.7467C19.6783 9.56708 19.6784 6.52812 19.5658 3.3766Z" fill="#70DBF9"/>
<path d="M28.3732 3.3766H29.3862L30.9619 5.68396C31.384 4.24889 32.3407 3.09521 34.0853 3.09521C35.3515 3.09521 36.4208 3.82682 36.4208 5.51513C36.4208 5.79651 36.3927 6.0779 36.3364 6.35928L33.8039 7.11902L33.6069 7.09089C34.029 5.3463 33.6632 4.41773 32.8753 4.41773C31.8623 4.41773 31.4121 5.7121 31.4121 7.62552C31.384 9.22941 31.384 11.0021 31.4403 12.7467C30.4273 12.6623 29.4143 12.6623 28.4013 12.7467C28.4857 9.56708 28.4857 6.52812 28.3732 3.3766Z" fill="#70DBF9"/>
<path d="M46.2974 10.0173C45.9316 11.9307 44.2152 13 41.936 13C38.7563 13 36.8992 10.974 36.8992 7.99132C36.8992 5.06491 38.7844 3.12335 41.7953 3.12335C44.8342 3.12335 46.3256 4.95236 46.2412 7.87876L45.8754 8.10387H39.9944V8.21643C39.9944 10.9459 40.5009 12.3809 41.9641 12.3809C42.752 12.3809 43.371 11.9026 43.371 10.6082C43.371 10.2987 43.3429 10.0736 43.2866 9.82032L43.6243 9.67963L46.2974 10.0173ZM40.0225 7.31599H43.1459C43.2585 6.95019 43.2866 6.38742 43.2866 5.79651C43.2866 4.50214 42.8645 3.7424 41.8797 3.7424C40.8386 3.7424 40.1632 4.78353 40.0225 7.31599Z" fill="#70DBF9"/>
<path d="M56.8493 12.7186C55.8645 12.6342 54.8515 12.6342 53.8666 12.7186C53.9229 10.8052 53.8948 9.22941 53.8385 7.20344C53.8104 5.62768 53.5571 4.38959 52.3753 4.38959C51.2779 4.38959 50.6026 5.65582 50.6026 8.10387C50.6026 9.25755 50.6307 11.0021 50.6307 12.7186C49.6177 12.6342 48.6047 12.6342 47.5917 12.7186C47.6762 9.56708 47.7043 6.52812 47.5636 3.3766H48.5766L50.1523 5.74024C50.6026 4.05192 51.7281 3.09521 53.4445 3.09521C55.4705 3.09521 56.7649 4.36145 56.793 7.23158C56.8212 9.17314 56.8493 10.8896 56.8493 12.7186Z" fill="#70DBF9"/>
<path d="M67.2888 10.0173C66.923 11.9307 65.2065 13 62.9273 13C59.7476 13 57.8905 10.974 57.8905 7.99132C57.8905 5.06491 59.7758 3.12335 62.7866 3.12335C65.8256 3.12335 67.3169 4.95236 67.2325 7.87876L66.8667 8.10387H60.9857V8.21643C60.9857 10.9459 61.4922 12.3809 62.9554 12.3809C63.7433 12.3809 64.3624 11.9026 64.3624 10.6082C64.3624 10.2987 64.3342 10.0736 64.2779 9.82032L64.6156 9.67963L67.2888 10.0173ZM61.0139 7.31599H64.1373C64.2498 6.95019 64.2779 6.38742 64.2779 5.79651C64.2779 4.50214 63.8559 3.7424 62.871 3.7424C61.8299 3.7424 61.1546 4.78353 61.0139 7.31599Z" fill="#70DBF9"/>
</svg>
